<svg xmlns="http://www.w3.org/2000/svg" width="478.01" height="100.56" viewBox="0 0 478.01 100.56"><title>logo-white-border</title><path d="M30.22,82.13c-10.2,0-18.37-3.19-26.48-10.34l-.25-.21a3.22,3.22,0,0,1-.14-4.5L10.7,58a3.15,3.15,0,0,1,2.57-1.33,3.16,3.16,0,0,1,2.2.9C21.17,62,26.26,64,32,64c4.39,0,9.78-1.56,10.52-6,.62-3.69-3.19-5.48-10.93-7.68C16.55,46,9.79,36.93,12,24.08,14.31,10.38,24.69,2.83,41.24,2.83c9.77,0,17.25,2.41,25,8.07a3.05,3.05,0,0,1,.61,4.72l-7.15,9.2a2.69,2.69,0,0,1-.23.28,3.19,3.19,0,0,1-4.39.26,30.19,30.19,0,0,0-15.7-4.7c-4.61,0-7.68,2-8.38,5.59C30.4,29.61,32.85,31,40,33.17,48.34,35.73,65.63,41,62,60.24a1.37,1.37,0,0,1,0,.2C59.07,74.63,48.1,82.13,30.22,82.13Z" transform="translate(-1 -1.33)"/><path d="M41.24,4.33a38,38,0,0,1,24.14,7.82,1.55,1.55,0,0,1,.31,2.47l-7.21,9.27-.14.17a1.69,1.69,0,0,1-2.39.09,31.71,31.71,0,0,0-16.58-5c-5.56,0-9.06,2.68-9.88,6.8-.82,4.94,3.5,6.65,10.09,8.65,9.37,2.88,24.3,8.13,20.9,25.53h0C57.22,76.2,43.6,80.63,30.22,80.63c-10.81,0-18.53-3.82-25.53-10l-.16-.14a1.72,1.72,0,0,1,0-2.43L11.9,58.9a1.65,1.65,0,0,1,2.57-.21c5.66,4.43,11.12,6.8,17.5,6.8,5.93,0,11.18-2.37,12-7.21.87-5.15-4.38-7.21-12-9.37-11-3.19-21-10-18.49-24.58,2.43-14.44,13.86-20,27.76-20m0-3c-17.37,0-28.28,8-30.72,22.5-1.64,9.55.6,22.17,20.61,28,8.79,2.49,10.22,4,9.88,6-.59,3.48-5.24,4.71-9,4.71-5.34,0-10.13-1.87-15.52-6.06a4.65,4.65,0,0,0-6.94.66l-7.3,9a4.73,4.73,0,0,0,.24,6.56l.33.29c8.4,7.39,16.87,10.69,27.45,10.69,8.15,0,15-1.55,20.41-4.61,6.81-3.87,11.12-10,12.8-18.28a3,3,0,0,0,0-.3c3.83-20.46-15-26.24-23-28.71-7.56-2.3-8.31-3.42-8-5.24.78-3.77,4.67-4.34,6.93-4.34a28.65,28.65,0,0,1,14.8,4.42,4.69,4.69,0,0,0,6.71-.88L68,16.59A4.55,4.55,0,0,0,67,9.66,41.21,41.21,0,0,0,41.24,1.33Z" transform="translate(-1 -1.33)" style="fill:#fff"/><path d="M100,100.39a3.06,3.06,0,0,1-2.34-1,3.36,3.36,0,0,1-.81-2.66,1.46,1.46,0,0,1,0-.15l2.9-15.74a23.65,23.65,0,0,1-7.54,1.25h-.52a18.09,18.09,0,0,1-14.15-6.47c-4-4.77-5.44-11.39-4.12-18.64l2-10.81c2.79-14.85,13.12-23.37,28.34-23.37a48.69,48.69,0,0,1,21.55,5.07A3.5,3.5,0,0,1,127.18,32L115.47,97.41a3.32,3.32,0,0,1-3.31,2.95h-.24ZM96.65,66v1.5L96.7,66a14.05,14.05,0,0,0,6-1.35l4.44-24.75a16.25,16.25,0,0,0-4.54-.64h-.22c-4.56,0-7.31,2.83-8.43,8.66l-2,11.3c-.39,2.35-.09,4.2.87,5.34A4.89,4.89,0,0,0,96.62,66Z" transform="translate(-1 -1.33)"/><path d="M103.84,24.33a46.93,46.93,0,0,1,20.88,4.91,2,2,0,0,1,1,2.37L114,97.2h0a1.83,1.83,0,0,1-1.82,1.65H112l-11.93,0c-1.14,0-1.75-.76-1.65-2l3.4-18.43a22,22,0,0,1-9.52,2.17H91.8C80.68,80.62,72.48,71,75,57.28l2-10.81c2.67-14.21,12.35-22.14,26.87-22.14M96.62,67.54h.09A15.5,15.5,0,0,0,104,65.69l4.8-26.76a17.81,17.81,0,0,0-6.25-1.13h-.24c-4.94,0-8.54,2.88-9.88,9.88L90.48,59c-.95,5.65,1.72,8.54,6.14,8.54m7.22-46.21h0c-16,0-26.88,9-29.82,24.59L72,56.74c-1.4,7.7.18,14.76,4.44,19.87a19.58,19.58,0,0,0,15.3,7h.52A25,25,0,0,0,97.92,83L95.45,96.35a3,3,0,0,0,0,.3,4.93,4.93,0,0,0,1.2,3.8,4.61,4.61,0,0,0,3.44,1.44l11.82,0h.29A4.81,4.81,0,0,0,117,97.64l11.7-65.35a5,5,0,0,0-2.56-5.71,50.22,50.22,0,0,0-22.25-5.24ZM96.62,64.54A3.48,3.48,0,0,1,94,63.63c-.66-.78-.85-2.25-.53-4.13l2-11.29c1.26-6.56,4.36-7.4,6.93-7.4h.24a14.79,14.79,0,0,1,2.82.27l-4,22.57a12.54,12.54,0,0,1-4.66.9h-.09Z" transform="translate(-1 -1.33)" style="fill:#fff"/><path d="M158.67,82.06c-7.65,0-13.68-2.37-17.44-6.86-3.89-4.64-5.21-11.28-3.8-19.2l5.14-28.87a3.24,3.24,0,0,1,3.2-2.88H158a2.94,2.94,0,0,1,2.84,3.69L155.68,58c-.52,2.93-.28,5,.72,6.21.78.94,2.16,1.41,4.08,1.41h.28a16.16,16.16,0,0,0,4.83-.74l6.73-37.75s0-.08,0-.12a3.16,3.16,0,0,1,3.14-2.79h.27l11.87.06.31,0A2.9,2.9,0,0,1,190.7,28L182.38,75a3.89,3.89,0,0,1-2.5,3,59.89,59.89,0,0,1-21.19,4.09Z" transform="translate(-1 -1.33)"/><path d="M175.47,25.74h.19l12,.06.22,0a1.4,1.4,0,0,1,1.32,1.87l-8.34,47a2.39,2.39,0,0,1-1.54,1.85,58.64,58.64,0,0,1-20.69,4c-15.34,0-22.34-9.78-19.77-24.3l5.15-28.93h0a1.72,1.72,0,0,1,1.71-1.57H158a1.44,1.44,0,0,1,1.38,1.86L154.2,57.77c-1.13,6.37,1.13,9.37,6.28,9.37h.28a17.73,17.73,0,0,0,6.15-1.1l6.9-38.71s0-.08,0-.12a1.66,1.66,0,0,1,1.65-1.47m0-3a4.66,4.66,0,0,0-4.63,4.12V27l-6.55,36.76a14.69,14.69,0,0,1-3.52.43h-.23c-1,0-2.37-.15-3-.87s-.82-2.58-.4-5l5.13-30.05a4.44,4.44,0,0,0-4.31-5.5H145.76a4.75,4.75,0,0,0-4.69,4.17l-5.13,28.82c-1.48,8.37-.05,15.44,4.13,20.43s10.49,7.4,18.59,7.4a61.46,61.46,0,0,0,21.75-4.19,5.4,5.4,0,0,0,3.43-4.16l8.3-46.84a4.4,4.4,0,0,0-4.24-5.57l-.38,0-11.74-.06Z" transform="translate(-1 -1.33)" style="fill:#fff"/><path d="M217.72,82.14c-8,0-14.15-2.38-17.9-6.87-3.15-3.79-4.28-8.75-3.25-14.36,1.25-7.13,6.58-15.64,24.85-15.64a48.18,48.18,0,0,1,7.46.57v-.09c.43-2.34.28-3.85-.44-4.72s-2.49-1.41-5.08-1.41H223a29.27,29.27,0,0,0-11.3,2.26,3.93,3.93,0,0,1-1.62.39,2.86,2.86,0,0,1-2.73-2.08l-3.18-8.42c-.74-2.21.08-3.31.89-3.84,5.36-3.25,13.3-5.09,21.83-5.09,7,0,12.64,2.25,16.2,6.52,3.92,4.7,5.2,11.59,3.69,19.94l-4.62,25.94a3.88,3.88,0,0,1-2.51,3.2,67.91,67.91,0,0,1-21.92,3.71Zm-2.82-20a1.34,1.34,0,0,1,0,.21,3.2,3.2,0,0,0,.43,2.7c.71.85,2.22,1.3,4.38,1.3a35,35,0,0,0,5.78-.58l1-6.53a31.65,31.65,0,0,0-4.88-.42C215.78,58.79,215.08,61.13,214.9,62.11Z" transform="translate(-1 -1.33)"/><path d="M226.88,24.33c14,0,21.21,9.24,18.42,24.69l-4.63,26a2.36,2.36,0,0,1-1.54,2,66.49,66.49,0,0,1-21.41,3.62C203.3,80.64,196,72.4,198,61.18c1.75-10,10.19-14.41,23.37-14.41h.1a46,46,0,0,1,8.65.82l.21-1.65c.93-5-.51-7.82-7-7.82H223a30.91,30.91,0,0,0-11.88,2.37,2.56,2.56,0,0,1-1,.27,1.39,1.39,0,0,1-1.32-1.09l-3.19-8.44c-.31-.93-.31-1.65.31-2.06,4.94-3,12.66-4.84,21-4.84m-7.2,43.49a36.4,36.4,0,0,0,7.1-.82l1.44-9a33.12,33.12,0,0,0-6.59-.72c-5.05,0-7.73,1.65-8.24,4.74v0c-.72,3.92,1.75,5.77,6.28,5.77m7.2-46.49c-8.8,0-17,1.92-22.55,5.27l-.1.06c-.82.54-2.62,2.17-1.5,5.51l0,.11L206,40.73a4.33,4.33,0,0,0,4.13,3,5.48,5.48,0,0,0,2.24-.52A27.77,27.77,0,0,1,223,41.12h.34c3,0,3.79.67,4,.87s.42.71.3,2.15a49.11,49.11,0,0,0-6.08-.38h-.11c-19.3,0-25,9.19-26.32,16.89-1.11,6,.13,11.43,3.57,15.56,4,4.85,10.63,7.41,19.05,7.41a69.36,69.36,0,0,0,22.39-3.78l.05,0a5.39,5.39,0,0,0,3.48-4.39l4.61-25.9c1.59-8.79.2-16.11-4-21.16-3.86-4.62-9.86-7.06-17.35-7.06Zm-10.49,41c.16-.68.84-2,5.24-2a29.88,29.88,0,0,1,3.16.2l-.63,4a33.47,33.47,0,0,1-4.5.38c-1.89,0-2.91-.41-3.2-.76s-.17-1.14-.11-1.47q0-.14,0-.29Z" transform="translate(-1 -1.33)" style="fill:#fff"/><path d="M280.34,82.15c-7.64,0-14.07-2.64-18.1-7.42s-5.41-11.13-4.18-18.22l2.16-11.85c2.3-13,12.45-21.82,25.26-21.82h.44a24,24,0,0,1,8.41,1.53l3.06-17.21a3.3,3.3,0,0,1,3.29-3h12.19A3,3,0,0,1,315.78,8L304,75.16a3.59,3.59,0,0,1-2.34,3l-.17.08a60.31,60.31,0,0,1-21.11,3.91ZM286.52,39c-4.31,0-6.86,2.66-7.84,8.14l-2,11c-.54,2.82-.36,4.79.53,5.87s2.29,1.42,4.57,1.42h.38a17.19,17.19,0,0,0,5.1-.77l4.35-24.6A11.07,11.07,0,0,0,286.86,39Z" transform="translate(-1 -1.33)"/><path d="M312.87,5.61a1.53,1.53,0,0,1,1.45,2L302.48,75a2.08,2.08,0,0,1-1.54,1.85v0a59,59,0,0,1-20.59,3.81c-14.93,0-23.17-10.2-20.8-23.89l2.16-11.84c2.16-12.25,11.53-20.59,23.78-20.59h.44a22.37,22.37,0,0,1,9.56,2.14l3.4-19.14a1.8,1.8,0,0,1,1.8-1.71h12.19M282.16,66.94a18.75,18.75,0,0,0,6.42-1.13l4.69-26.55a12.56,12.56,0,0,0-6.41-1.76h-.39c-4.95,0-8.14,3.09-9.27,9.37l-2,11c-1.24,6.46,1,9.06,6.58,9.06h.38M312.87,2.61H300.68A4.8,4.8,0,0,0,295.9,7l-2.74,15.43a25.51,25.51,0,0,0-7.24-1.06h-.47c-13.54,0-24.27,9.28-26.7,23.07l-2.16,11.82c-1.31,7.56.29,14.47,4.5,19.47s11.15,8,19.25,8a61.81,61.81,0,0,0,21.65-4l.27-.12a5.09,5.09,0,0,0,3.2-4.16L317.25,8.3a4.53,4.53,0,0,0-4.38-5.69ZM282.16,63.94h-.38c-1.73,0-2.94-.31-3.41-.88s-.65-2.37-.22-4.62l2-11c1.1-6.12,4-6.91,6.32-6.91h.39a9.56,9.56,0,0,1,3.05.5l-4,22.48a15.7,15.7,0,0,1-3.79.46Z" transform="translate(-1 -1.33)" style="fill:#fff"/><path d="M336.6,80.86l-.4,0H323.55A3,3,0,0,1,320.64,77L332.86,7.13a3.32,3.32,0,0,1,3.28-3h14.77a3.4,3.4,0,0,1,3.32,2.69l5.13,17.54c1.4,5.41,3.24,12.83,4.4,17.8,2.71-4.76,7.37-12.86,10.91-18.39L386.22,6a3.69,3.69,0,0,1,3.2-1.82l.37,0h15.11A3,3,0,0,1,407.82,8L395.6,77.9a3.32,3.32,0,0,1-3.3,2.95H379.52a3.21,3.21,0,0,1-.78-.09,3.12,3.12,0,0,1-2.3-3.77l2.29-13c1.12-6.7,3.21-17,4.79-24.58-2.6,4.53-5.71,9.75-8.2,13.79l-6.55,10.24a3.6,3.6,0,0,1-3.23,2h-9.63a3.48,3.48,0,0,1-3.41-2.7l-3.07-10.42L348.57,49c-.86-3.29-1.77-6.81-2.56-10-1.15,8.27-2.5,16.72-3.63,23.8l-.22,1.35L339.8,77.84a3.3,3.3,0,0,1,0,.35,3.2,3.2,0,0,1-3.16,2.67Z" transform="translate(-1 -1.33)" style="fill:#ffc40b"/><path d="M350.91,5.66a1.9,1.9,0,0,1,1.87,1.55l5.15,17.6c1.65,6.39,4.22,16.79,5.15,21.11h.31c2.37-4.22,8.34-14.72,12.56-21.31L387.48,6.8a2.23,2.23,0,0,1,1.94-1.14l.29,0h15.2a1.53,1.53,0,0,1,1.45,2l-12.25,70h0a1.83,1.83,0,0,1-1.82,1.65H379.47a1.62,1.62,0,0,1-1.57-2l2.31-13c1.34-8,4.22-22,6.49-32.64l-.51-.1c-2.47,4.74-8,14.21-12.15,20.9l-6.59,10.3A2.1,2.1,0,0,1,365.53,64h-9.63A2,2,0,0,1,354,62.44l-3.09-10.5c-1.65-6.38-4-15.24-4.94-19.87h-.51C344.08,42.88,342.12,55,340.68,64l-2.37,13.69a1.71,1.71,0,0,1-1.71,1.68l-.29,0H323.55a1.53,1.53,0,0,1-1.45-2l12.25-70a1.8,1.8,0,0,1,1.79-1.66h14.77m0-3H336.14a4.82,4.82,0,0,0-4.77,4.25l-12.2,69.73a4.53,4.53,0,0,0,4.38,5.69h12.57l.49,0a4.7,4.7,0,0,0,4.64-3.91c0-.14,0-.28.05-.42l2.34-13.52.23-1.43c.79-5,1.69-10.57,2.55-16.33l.69,2.65.86,3.3,0,.1,3.07,10.44A5,5,0,0,0,355.91,67h9.63a5.11,5.11,0,0,0,4.54-2.78l6.5-10.15,0,0c1.12-1.81,2.36-3.87,3.64-6-1.13,5.62-2.26,11.45-3,15.77l-2.29,13a4.62,4.62,0,0,0,4.52,5.59h12.82a4.81,4.81,0,0,0,4.79-4.23L409.29,8.36a4.53,4.53,0,0,0-4.38-5.69h-15l-.44,0a5.24,5.24,0,0,0-4.5,2.57L373.43,23c-2.84,4.43-6.38,10.48-9.08,15.17-1.16-4.79-2.56-10.37-3.52-14.09l0-.09L355.69,6.48a4.9,4.9,0,0,0-4.78-3.82Z" transform="translate(-1 -1.33)" style="fill:#fff"/><path d="M440.12,82.16c-10.2,0-18.37-3.19-26.49-10.34l-.25-.21a3.23,3.23,0,0,1-.14-4.5L420.59,58a3.15,3.15,0,0,1,4.77-.43C431.05,62,436.15,64,441.86,64c4.39,0,9.78-1.56,10.52-6,.62-3.69-3.19-5.48-10.93-7.68-15-4.35-21.77-13.44-19.6-26.3,2.34-13.7,12.74-21.25,29.28-21.25a39.84,39.84,0,0,1,24.93,8,3,3,0,0,1,.61,4.72l-7.27,9.35a3.19,3.19,0,0,1-4.42.46,30.19,30.19,0,0,0-15.73-4.72c-4.61,0-7.68,2-8.38,5.59-.56,3.37,1.89,4.75,9.05,6.92,8.34,2.56,25.66,7.89,22,27.16a1.34,1.34,0,0,1,0,.15C469,74.66,458,82.16,440.12,82.16Z" transform="translate(-1 -1.33)" style="fill:#ffc40b"/><path d="M451.13,4.33a38.11,38.11,0,0,1,24.1,7.77,1.55,1.55,0,0,1,.31,2.47l-7.21,9.27-.09.11a1.69,1.69,0,0,1-2.38.2,31.71,31.71,0,0,0-16.58-5c-5.56,0-9.06,2.68-9.88,6.8-.82,4.94,3.5,6.65,10.09,8.65,9.37,2.88,24.3,8.13,20.9,25.53v0c-3.27,16.06-16.89,20.49-30.27,20.49-10.81,0-18.53-3.82-25.53-10l-.16-.14a1.72,1.72,0,0,1,0-2.43l7.41-9.16a1.65,1.65,0,0,1,2.57-.21c5.66,4.43,11.12,6.8,17.5,6.8,5.93,0,11.18-2.37,12-7.21.87-5.15-4.38-7.21-12-9.37-11-3.19-21-10-18.53-24.61,2.47-14.44,13.9-20,27.8-20m0-3c-17.35,0-28.28,8-30.76,22.49-1.62,9.58.65,22.2,20.65,28,8.79,2.49,10.22,4,9.88,6-.59,3.48-5.24,4.71-9,4.71-5.34,0-10.13-1.87-15.52-6.06a4.65,4.65,0,0,0-6.94.66l-7.29,9a4.72,4.72,0,0,0,.24,6.56l.33.29c8.4,7.39,16.87,10.69,27.45,10.69,8.15,0,15-1.55,20.41-4.61,6.81-3.87,11.12-10,12.8-18.28q0-.12,0-.24c3.9-20.53-14.94-26.32-23-28.79-7.56-2.3-8.31-3.42-8-5.24.78-3.77,4.67-4.34,6.93-4.34a28.65,28.65,0,0,1,14.84,4.45,4.69,4.69,0,0,0,6.41-.71l.2-.25,7.08-9.1a4.55,4.55,0,0,0-.91-6.94,41.25,41.25,0,0,0-25.76-8.27Z" transform="translate(-1 -1.33)" style="fill:#fff"/></svg>
