<svg xmlns="http://www.w3.org/2000/svg" width="472.01" height="94.52" viewBox="0 0 472.01 94.52">
    <title>logo</title>
    <path d="M56,55.8c3.4-17.4-11.53-22.65-20.9-25.53-6.59-2-10.91-3.71-10.09-8.65.82-4.12,4.32-6.8,9.88-6.8a31.71,31.71,0,0,1,16.58,5A1.69,1.69,0,0,0,54,19.56l7.21-9.27a1.55,1.55,0,0,0-.31-2.47C53.75,2.57,46.54,0,36.76,0,22.86,0,11.43,5.56,9,20,6.49,34.59,16.47,41.39,27.49,44.58c7.62,2.16,12.87,4.22,12,9.37-.82,4.84-6.07,7.21-12,7.21-6.38,0-11.84-2.37-17.5-6.8a1.65,1.65,0,0,0-2.57.21L0,63.73a1.72,1.72,0,0,0,.21,2.57c7,6.18,14.72,10,25.53,10,13.38,0,27-4.43,30.27-20.49Z" transform="translate(0.48)" style="fill:#ffffff"/>
    <path d="M107.5,94.52a1.83,1.83,0,0,0,2-1.65l11.74-65.59a2,2,0,0,0-1-2.37A46.93,46.93,0,0,0,99.36,20c-14.52,0-24.2,7.93-26.87,22.14l-2,10.81C68,66.62,76.2,76.29,87.32,76.29a22,22,0,0,0,10-2.16l-3.4,18.43c-.1,1.24.51,2,1.65,2ZM86,54.67,88,43.35c1.34-7,4.94-9.88,9.88-9.88a17.81,17.81,0,0,1,6.49,1.13L99.57,61.36a15.5,15.5,0,0,1-7.41,1.85C87.73,63.22,85.05,60.33,86,54.67Z" transform="translate(0.48)" style="fill:#ffffff"/>
    <path d="M171.18,21.42A1.66,1.66,0,0,0,169.33,23l-6.9,38.71A17.73,17.73,0,0,1,156,62.81c-5.15,0-7.41-3-6.28-9.37l5.15-30.17a1.44,1.44,0,0,0-1.54-1.85H141.43A1.72,1.72,0,0,0,139.57,23l-5.15,28.93c-2.57,14.52,4.43,24.3,19.77,24.3a58.64,58.64,0,0,0,20.69-4,2.39,2.39,0,0,0,1.54-1.85l8.34-47.05a1.4,1.4,0,0,0-1.54-1.85Z" transform="translate(0.48)" style="fill:#ffffff"/>
    <path d="M234.65,72.69a2.36,2.36,0,0,0,1.54-2l4.63-26C243.61,29.24,236.4,20,222.4,20c-8.34,0-16.06,1.85-21,4.84-.62.41-.62,1.13-.31,2.06l3.19,8.44c.41,1.13,1.24,1.34,2.37.82a30.91,30.91,0,0,1,12.25-2.37c6.49,0,7.93,2.78,7,7.82l-.21,1.65a46,46,0,0,0-8.75-.82c-13.18,0-21.62,4.43-23.37,14.41-2.06,11.22,5.25,19.46,19.67,19.46A66.49,66.49,0,0,0,234.65,72.69Zm-25.74-15c.51-3.09,3.19-4.74,8.24-4.74a33.12,33.12,0,0,1,6.59.72l-1.44,9a36.4,36.4,0,0,1-7.1.82c-4.53,0-7-1.85-6.28-5.77Z" transform="translate(0.48)" style="fill:#ffffff"/>
    <path d="M296.46,72.48A2.08,2.08,0,0,0,298,70.63L309.84,3.29a1.53,1.53,0,0,0-1.65-2H296.25A1.8,1.8,0,0,0,294.4,3L291,22.14A22.37,22.37,0,0,0,281,20c-12.25,0-21.62,8.34-23.78,20.59l-2.16,11.84c-2.37,13.69,5.87,23.89,20.8,23.89a59,59,0,0,0,20.59-3.81ZM270.72,53.54l2-11c1.13-6.28,4.32-9.37,9.27-9.37a12.56,12.56,0,0,1,6.8,1.75L284.1,61.47a18.75,18.75,0,0,1-6.8,1.13C271.75,62.6,269.48,60,270.72,53.54Z" transform="translate(0.48)" style="fill:#ffffff"/>
    <path d="M331.83,75a1.71,1.71,0,0,0,2-1.65l2.37-13.69c1.44-9,3.4-21.11,4.74-31.92h.51c.93,4.63,3.29,13.49,4.94,19.87l3.09,10.5a2,2,0,0,0,2.06,1.54h9.37a2.1,2.1,0,0,0,2.06-1.24l6.59-10.3c4.12-6.69,9.68-16.16,12.15-20.9l.51.1c-2.27,10.6-5.15,24.61-6.49,32.64L373.42,73a1.62,1.62,0,0,0,1.65,2h12.56a1.83,1.83,0,0,0,2-1.65l12.25-70a1.53,1.53,0,0,0-1.65-2h-15A2.23,2.23,0,0,0,383,2.47L371.47,20.28c-4.22,6.59-10.19,17.09-12.56,21.31h-.31c-.93-4.32-3.5-14.72-5.15-21.11L348.3,2.88a1.9,1.9,0,0,0-2.06-1.54H331.72A1.8,1.8,0,0,0,329.87,3L317.62,73a1.53,1.53,0,0,0,1.65,2Z" transform="translate(0.48)" style="fill:#ffc40b"/>
    <path d="M465.91,55.8c3.4-17.4-11.53-22.65-20.9-25.53-6.59-2-10.91-3.71-10.09-8.65.82-4.12,4.32-6.8,9.88-6.8a31.71,31.71,0,0,1,16.58,5,1.69,1.69,0,0,0,2.47-.31l7.21-9.27a1.55,1.55,0,0,0-.31-2.47C463.64,2.57,456.43,0,446.65,0c-13.9,0-25.33,5.56-27.8,20-2.47,14.62,7.52,21.42,18.53,24.61,7.62,2.16,12.87,4.22,12,9.37-.82,4.84-6.07,7.21-12,7.21-6.38,0-11.84-2.37-17.5-6.8a1.65,1.65,0,0,0-2.57.21l-7.41,9.16a1.72,1.72,0,0,0,.21,2.57c7,6.18,14.72,10,25.53,10,13.38,0,27-4.43,30.27-20.49Z" transform="translate(0.48)" style="fill:#ffc40b"/>
</svg>
